<svg width="85" height="83" viewBox="0 0 85 83" fill="none" xmlns="http://www.w3.org/2000/svg">
<path d="M55.6414 35.0207L28.6637 34.9991C21.3078 34.9991 15.1929 40.9538 15.0002 48.6075C14.9941 48.811 15.1598 48.9806 15.3586 48.9806L42.3363 48.9991C49.6922 49.0022 55.8071 43.0476 55.9998 35.3969C56.0059 35.1934 55.8402 35.0238 55.6414 35.0238V35.0207Z" fill="#E62058"/>
<path d="M69.6393 13.0216L28.7448 13C21.3452 13 15.1941 18.9546 15.0002 26.6084C14.9941 26.8119 15.1608 26.9815 15.3607 26.9815L56.2552 27C63.6548 27.0031 69.8059 21.0485 69.9998 13.3978C70.0059 13.1943 69.8392 13.0247 69.6393 13.0247V13.0216Z" fill="#E62058"/>
<path d="M22 70.9977C25.866 70.9977 29 67.6399 29 63.4977C29 59.3556 25.866 55.9977 22 55.9977C18.134 55.9977 15 59.3556 15 63.4977C15 67.6399 18.134 70.9977 22 70.9977Z" fill="#E62058"/>
</svg>
